/* XPM */
static char *letter-1,1-partWhitened.xpm[] = {
/* width height ncolors chars_per_pixel */
"50 50 73 2",
/* colors */
"AA c #000000",
"BA c #040404",
"CA c #070707",
"DA c #0B0B0B",
"EA c #0D0D0D",
"FA c #0E0E0E",
"GA c #101010",
"HA c #121212",
"IA c #131313",
"JA c #161616",
"KA c #171717",
"LA c #191919",
"MA c #1C1C1C",
"NA c #1D1D1D",
"OA c #1F1F1F",
"PA c #232323",
"AB c #252525",
"BB c #262626",
"CB c #272727",
"DB c #282828",
"EB c #313131",
"FB c #343434",
"GB c #363636",
"HB c #383838",
"IB c #3A3A3A",
"JB c #3C3C3C",
"KB c #3E3E3E",
"LB c #3F3F3F",
"MB c #404040",
"NB c #414141",
"OB c #444444",
"PB c #464646",
"AC c #4A4A4A",
"BC c #4F4F4F",
"CC c #505050",
"DC c #555555",
"EC c #565656",
"FC c #585858",
"GC c #5B5B5B",
"HC c #5F5F5F",
"IC c #606060",
"JC c #646464",
"KC c #656565",
"LC c #666666",
"MC c #6A6A6A",
"NC c #6C6C6C",
"OC c #6D6D6D",
"PC c #6F6F6F",
"AD c #777777",
"BD c #7A7A7A",
"CD c #7D7D7D",
"DD c #7E7E7E",
"ED c #868686",
"FD c #888888",
"GD c #8B8B8B",
"HD c #8E8E8E",
"ID c #929292",
"JD c #939393",
"KD c #969696",
"LD c #979797",
"MD c #989898",
"ND c #999999",
"OD c #9B9B9B",
"PD c #9D9D9D",
"AE c #9E9E9E",
"BE c #9F9F9F",
"CE c #A1A1A1",
"DE c #A3A3A3",
"EE c #A4A4A4",
"FE c #ACACAC",
"GE c #B6B6B6",
"HE c #BCBCBC",
"IE c #FFFFFF",
/* pixels */
"IEIEIEIEIEIEIEIEIEIEIEIEIEIEIEIEIEIEIEIEIEIEIEIEIEIEIEIEIEIEIEIEIEIEIEIEIEIEIEIEIEIEIEIEIEIEIEIEIEIE",
"IEIEIEIEIEIEIEIEIEIEIEIEIEIEIEIEIEIEIEIEIEIEIEIEIEIEIEIEIEIEIEIEIEIEIEIEIEIEIEIEIEIEIEIEIEIEIEIEIEIE",
"IEIEIEIEIEIEIEIEIEIEIEIEIEIEIEIEIEIEIEIEIEIEIEIEIEIEIEIEIEIEIEIEIEIEIEIEIEIEIEIEIEIEIEIEIEIEIEIEIEIE",
"IEIEIEIEIEIEIEIEIEIEIEIEIEIEIEIEIEAEIEIEIEIEIEIEIEIEIEIEIEIEAEIEIEIEIEIEIEIEIEIEIEIEIEIEIEIEIEIEIEIE",
"IEIEIEIEIEIEIEIEIEIEIEIEIEIEIEAEIEIEIEIEIEIEIEIEIEBDIEIEIEIEIEIEIEIEIEIEIEIEIEIEIEIEIEIEIEIEIEIEIEIE",
"IEIEIEIEIEIEIEIEIEIEIEIEIEIEIEIEIEIEIEIEIEIEIENDIEIEIEIEIEIEIEIEIEIEIEIEIEIEIEIEIEIEIEIEIEIEIEIEIEIE",
"IEIEIEIEIEIEIEIEIEIEIEIEIEIEIEIEIEAEIEIEIEIEIEIEIEIEIEIEIEIEIEIEIEIEIEIEIEIEIEIEIEIEIEIEIEIEIEIEIEIE",
"IEIEIEIEIEIEIEIEIEIEIEIEIEIEIEIEIEIEIEIEIEIEIEIEIEIEKDIEIEIEIEIEIEIEIEIEIEIEIEIEIEIEIEIEIEIEIEIEIEIE",
"IEIEIEIEIEIEIEIEIEIEIEIEIEIEIEIEIEIEIEIEIEIEMBABAAOBHECAIEIEIEIEIEIEIEIEIEIEIEIEIEIEIEIEIEIEIEIEIEIE",
"IEIEIEIEIEIEIEIEIEIEIEIEIEIEIEIEIEODCEIEGEDDCAPBFBCAEBIAGACAIEIEIEIEIEIEIEIEIEIEIEIEIEIEIEIEIEIEIEIE",
"IEIEIEIEIEIEIEIEIEIEIEIEIEIEIEIEIEIEIEODABEBABABCBPBIAEBLBCAGAIEIEIEIEIEIEIEIEIEIEIEIEIEIEIEIEIEIEIE",
"IEIEIEIEIEIEIEIEIEIEIEIEIEIEIEIEIEIEKDGAABCAGAIEIEFCGACALAKAKALDIENDIEIEIEIEIEIEIEIEIEIEIEIEIEIEIEIE",
"IEIEIEIEIEIEIEIEIEIEIEIEIEIEIEIEIEHDICGABACBCECEKDIEIEJDHCIACACAIEIEIEIEIEIEIEIEIEIEIEIEIEIEIEIEIEIE",
"IEIEIEIEIEIEIEIEIEIEIEIEIEIEIEIEPDBAGAGABBDDIEIEIEIEIEIEJDNCGAJABAKCNDIEIEIEIEIEIEIEIEIEIEIEIEIEIEIE",
"IEIEIEIEIEIEIEIEIEIEIEIEIEIEIEIEICGAOBBAACIEIEIEIEIEIDCEIENDFBBAGAJAIEIEIEIEIEIEIEIEIEIEIEIEIEIEIEIE",
"IEIEIEIEIEIEIEIEIEIEIEIEIEIEIECCDAJAIAKAGCIEIEIEIEIEIEIEIEIEIEHBAACABAJAIENDIEIEIEIEIEIEIEIEIEIEIEIE",
"IEIEIEIEIEIEIEIEIEIEIEIEIEIEIEOCGAJAGAIEIEIEIEIEIEIEIEIEIEIEIEIEGABBBABAIEIEIEIEIEIEIEIEIEIEIEIEIEIE",
"IEIEIEIEIEIEIEIEIEIEIEIEIEIEIEFBDAJAACIEIEGDIEIEIEIEIEIEIEIEIEIEIEBAGAGABAIEIEIEIEIEIEIEIEIEIEIEIEIE",
"IEIEIEIEIEIEIEIEIEIEIEIEIEIEIECADACAIEIEIEIEIEIEIEIEIEIEIEIEIEIEIEGAJABAHBIENDIEIEIEIEIEIEIEIEIEIEIE",
"IEIEIEIEIEIEIEIEIEIEIEIEIEIEGAKABAIEIEIENDIEIEIEIEIEIEIEIEIEIEIEIEODECGAIEIEIEIEIEIEIEIEIEIEIEIEIEIE",
"IEIEIEIEIEIEIEIEIEIEIEIEIEGDGABAKAIEIEIEIEIEIEIEIEIEIEIEIEIEIEIEIEIEAACABAJBIEIEIEIEIEIEIEIEIEIEIEIE",
"IEIEIEIEIEIEIEIEIEIEIEIEIEKCDABBIEIEIEIEIEIEIEIEIEIEIEIEIEIEIEIEIEIEIEIEABABIEIEIEIEIEIEIEIEIEIEIEIE",
"IEIEIEIEIEIEIEIEIEIEIEIEIEKAIABAIEIENDIEIEIEIEIEIEIEIEIEIEIEIEIEIEGDIEIEIEIEIEIEIEIEIEIEIEIEIEIEIEIE",
"IEIEIEIEIEIEIEIEIEIEIEIEIEDAHAAAIEIECEIEIEIEIEIEIEIEIEIEIEIEIEIEIENDIEIECACABAIEIEIEIEIEIEIEIEIEIEIE",
"IEIEIEIEIEIEIEIEDEIEIEIEIEEAPAJAIEIEIEIEIEBEIEIEIEIEIEIEIEIEIEAEIEIEIEOCCAGACAIEIEIEIEIEIEIEIEIEIEIE",
"IEIEIEIEIEIEIEIEIEIEIEIECEHAOAGAIEIEIEIEIEIEIEIEIEIEIEIEIEIEIEIEAENDIEACGACALAIEIEIEIEIEIEIEIEIEIEIE",
"IEIEIEIEIEIEIEIEIEIEIENDBDEAHADCIEIEIEIEIEIEIEIEIEIEIEIEIEIEIEIEIEIEIEDAIAEBCAIEIEIEIEIEIEIEIEIEIEIE",
"IEIEIEIEIEIEIEIEIEIEIEODEDKAOAABIEIEIEIEIEIEIEIEIEIEIEIEIEIEIEIEIENDIEIAIAIAIEIECEIEIEIEIEIEIEIEIEIE",
"IEIEIEIEIEIEIEIEIEIEIEIEIEKAIBAAIEIEIEIEIEIEIEIEIEIEIEIEIEIEIEIEIEIENDCACAMDEBGEIEIEIEIEIEIEIEIEIEIE",
"IEIEIEIEIEIEIEIEIEIEIEIEIEEAHBBAIEIEIEIEIEIEIEIEIEIEIEIEIEIEIEIEIEHEIEMDLAFBDABCIECEIEIEIEIEIEIEIEIE",
"IEIEIEIEIEIEIEIEIEIEIEIEIEDAKBKANDIEIEIEIEIEIEIEIEIEIEIEIEIEIEDEIEIEIEHBKADAPAGAKDIEIEIEIEIEIEIEIEIE",
"IEIEIEIEIEIEIEIEIEIEIEIEIECAFBKAOBIEIEIEIEIEIEIEIEIEIEIEIEIEIEIEIEIENCGCJCLAECIAPCIEIEIENDIEIEIEIEIE",
"IEIEIEIEIEIEIEIEIEIEIEIEIEDAKABBCAIEIENDIEIEIEIEIEIEIEIEIEIEIEIEIEIECAIEIADADALAKAIEIEIEIEIEIEIEIEIE",
"IEIEIEIEIEIEIEDEIEDEIEIECEABGAKAGAIEIEIEIEIEIEIEIEIEIEIEIEIEIEIEIEABHBDAIEIEHACBIAFCIEIECEIEIEIEIEIE",
"IEIEIEIEIEIEIEIEIEDEIEIEIEFBGACAKANDNDIENDIEIEIEIEIEIEIEIEIEIEIEMCCAADNAJDIEEANAGABAIEIEIEIEIEIEIEIE",
"IEIEIEIEIEIEIEIEIEIEIENDIEIEAAOADBFEIEIEIEIEIEIEIEIEIEIEIEIEIEIECAKCEBIEIEIEIEAAABGAJAIEIECEIENDIEIE",
"IEIEIEIEIEIEIEIEIEIEIEIEIEIEAAHAOAMAIEIEIEAEIEIEIEIEIEIEIEIEIEDAGAKDABIEKDIECECCGAGAAAIAGAEDIEIECECE",
"IEIEIEIEIEIEIEIEIEIEIEIEIEIEDCMAHBGAIEIEIEIEIEIEIEIEIEIEIEIEHEGAIEIEIEIEIEIEIEIECDABBBGAEBCACACAGAGA",
"IEIEIEIEIEIEIEIEIEIEIEIEIEIEIEDAKADAHCIEIEIEIEIEIEIEIEIEIEIEJBKAEDIEGEIEODCEIEIEIEHEGABAGAABABABJAAB",
"IEIEIEIEIEIEIEIEIEIEIEIEIEIEIEJAGACAGAIEIECEIECEIEIEIEIEIEABNBAAIEKDIEIEIEIEIEODIEIEIEGAKAGABAABAAGA",
"IEIEIEIEIEIEIEIEIEIEIEIEIEIEIECEIABAOBFCCEIEIEIECEIEIELDAAODGBIEIEIEIEODIEODIEIEODIEIEIECEIEIECDCEIE",
"IEIEIEIEIEIEIEIEIEIEIEIEIEIEIEIEGBAANBGAGCIEIEIEJDIECAABGAFAIEIEIECDIEIEIEIEIEBEIEIEIEIEIEIEIEIEIEIE",
"IEIEIEIEIEIEIEIEIEIEIEIEIEIEIEBEIEGAAAGACBKCIEEELCCACBGAIEIEIEODIEIEIEIEIEIEIEIEIEIEIEIEIEIENDIEIEIE",
"IEIEIEIEIEIEIEIEIEIEIEIEIEIEIEIEIEOCFACBOBFBDAECIACAFBNBKDIEIEIEIEIEIEIEIEIEIEIEIEIEIEIEIEIEIEIEIEIE",
"IEIEIEIEIEIEIEIEIEIEIEIEIEIEIEDEIEFDABCABAKAFBPBEAMBKDCEIEIEIEIEIEIEIEIEIEIEIEIEIEIEIEIEIEIEIEIEIEIE",
"IEIEIEIEIEIEIEIEIEIEIEIEIEIEIEIEIEIEIEHDABCAGACAABGCIEIEIEIEIEIEIEIEIEIEIEIEIEIEIEIEIEIEIEIEIEIEIEIE",
"IEIEIEIEIEIEIEIEIEIEIEIEIEIEIEIEIEIEIEIEIEGCFCABPDIECENDIEIEIEIEIEIEIEIEIEIEIEIEIEIEIEIEIEIEIEIEIEIE",
"IEIEIEIEIEIEIEIEIEIEIEIEIEIEIEIEIEIEIEIEIEIEIEIEIEIEIEIEIEIEIEIEIEIEIEIEIEIEIEIEIEIEIEIEIEIEIEIEIEIE",
"IEIEIEIEIEIEIEIEIEIEIEIEIEIEIEIEIEIEIEIEIEIEIEIEIEIEIEIEIEIEIEIEIEIEIEIEIEIEIEIEIEIEIEIEIEIEIEIEIEIE",
"IEIEIEIEIEIEIEIEIEIEIEIEIEIEIEIEIENDIEIEIEIEIEIEIEIEAEIEIEIEIEIEIEIEIEIEIEIEIEIEIEIEIEIEIEIEIEIEIEIE"};
