/* XPM */
static char *letter-1,1.xpm[] = {
/* width height ncolors chars_per_pixel */
"89 89 90 2",
/* colors */
"AA c #000000",
"BA c #040404",
"CA c #070707",
"DA c #0B0B0B",
"EA c #0D0D0D",
"FA c #0E0E0E",
"GA c #101010",
"HA c #121212",
"IA c #131313",
"JA c #161616",
"KA c #171717",
"LA c #191919",
"MA c #1C1C1C",
"NA c #1D1D1D",
"OA c #1F1F1F",
"PA c #232323",
"AB c #252525",
"BB c #262626",
"CB c #272727",
"DB c #282828",
"EB c #313131",
"FB c #343434",
"GB c #363636",
"HB c #383838",
"IB c #3A3A3A",
"JB c #3C3C3C",
"KB c #3E3E3E",
"LB c #3F3F3F",
"MB c #404040",
"NB c #414141",
"OB c #444444",
"PB c #464646",
"AC c #4A4A4A",
"BC c #4F4F4F",
"CC c #505050",
"DC c #555555",
"EC c #565656",
"FC c #585858",
"GC c #5B5B5B",
"HC c #5F5F5F",
"IC c #606060",
"JC c #646464",
"KC c #656565",
"LC c #666666",
"MC c #6A6A6A",
"NC c #6C6C6C",
"OC c #6D6D6D",
"PC c #6F6F6F",
"AD c #767676",
"BD c #777777",
"CD c #7A7A7A",
"DD c #7D7D7D",
"ED c #7E7E7E",
"FD c #868686",
"GD c #888888",
"HD c #8B8B8B",
"ID c #8E8E8E",
"JD c #929292",
"KD c #939393",
"LD c #969696",
"MD c #979797",
"ND c #989898",
"OD c #999999",
"PD c #9B9B9B",
"AE c #9D9D9D",
"BE c #9E9E9E",
"CE c #9F9F9F",
"DE c #A1A1A1",
"EE c #A3A3A3",
"FE c #A4A4A4",
"GE c #ACACAC",
"HE c #B6B6B6",
"IE c #BCBCBC",
"JE c #C1C1C1",
"KE c #C3C3C3",
"LE c #C5C5C5",
"ME c #C6C6C6",
"NE c #CACACA",
"OE c #CECECE",
"PE c #D2D2D2",
"AF c #D3D3D3",
"BF c #D5D5D5",
"CF c #DCDCDC",
"DF c #DDDDDD",
"EF c #E1E1E1",
"FF c #E4E4E4",
"GF c #E7E7E7",
"HF c #ECECEC",
"IF c #F4F4F4",
"JF c #FFFFFF",
/* pixels */
"JFJFIFFFJFCEJFIFIFJFJFJFJFIFJFJFJFJFIFJFJFIFJFJFJFJFIFJFJFJFJFJFJFJFIFJFJFJFIFJFJFJFJFIFJFJFJFJFIFJFJFIFJFJFJFBFJFIFJFJFIFJFJFJFJFJFIFJFODJFFFIFJFJFJFIFJFJFFFJFIFJFODJFJFJFJFJFJF",
"FFJFJFHFJFIFJFJFJFJFIFJFJFJFJFJFJFIFJFJFJFJFIFJFJFIFJFJFJFJFJFJFJFJFJFJFJFODCEJFJFIFJFJFJFJFJFJFJFJFIFJFAFJFJFJFJFJFJFJFJFJFJFJFIFJFJFJFJFJFIFJFIFJFIFJFJFJFIFJFJFJFCEJFJFJFJFJFJF",
"FFJFJFJFEFJFJFJFJFIFJFJFJFJFJFIFJFJFJFJFJFJFJFJFJFJFJFJFJFJFIFJFODIFJFJFIFJFJFJFJFJFJFIFJFIFJFJFJFJFEFJFJFJFFFIFJFJFJFJFJFJFJFJFJFJFJFJFIFJFJFJFJFIFJFJFCEJFJFIFJFJFODJFJFIFJFJFIF",
"NEJFJFJFJFJFNEJFJFODJFIFJFJFJFJFJFIFJFJFJFJFJFIFJFJFJFIFJFJFODJFJFJFJFJFJFJFIFJFJFJFJFJFJFJFJFIFJFJFJFJFIFJFJFJFJFJFJFIFJFIFJFJFJFJFJFJFJFJFJFIFFFJFFFIFJFJFBFJFJFIFJFJFJFJFIFJFJF",
"JFJFJFJFJFJFJFJFJFJFJFJFJFJFJFJFJFJFJFJFJFJFJFJFJFJFJFJFJFJFJFJFJFJFJFJFJFJFJFJFJFJFJFJFJFJFJFJFJFJFJFJFJFJFJFJFJFJFJFJFJFJFJFJFJFJFJFJFJFJFJFJFJFJFJFJFJFJFJFJFJFJFJFJFJFJFJFJFJF",
"JFJFJFJFJFJFJFJFJFJFJFJFJFJFJFJFJFJFJFJFJFJFJFJFJFJFJFJFJFJFJFJFJFJFJFJFJFJFJFJFJFJFJFJFJFJFJFJFJFJFJFJFJFJFJFJFJFJFJFJFJFJFJFJFJFJFJFJFJFJFJFJFJFJFJFJFJFJFJFJFJFJFJFJFJFJFJFJFJF",
"JFJFJFJFJFJFJFJFJFJFJFJFJFJFJFJFJFJFJFJFJFJFJFJFJFJFJFJFJFJFJFJFJFJFJFJFJFJFJFJFJFJFJFJFJFJFJFJFJFJFJFJFJFJFJFJFJFJFJFJFJFJFJFJFJFJFJFJFJFJFJFJFJFJFJFJFJFJFJFJFJFJFJFJFJFJFJFJFNE",
"JFJFJFJFJFJFJFJFJFJFJFJFJFJFJFJFJFJFJFJFJFJFJFJFJFJFJFJFJFJFJFJFJFJFJFJFJFJFJFJFJFJFJFJFJFJFJFJFJFJFJFJFJFJFJFJFJFJFJFJFJFJFJFJFJFJFJFJFJFJFJFJFJFJFJFJFJFJFJFJFJFJFJFJFJFJFJFJFIF",
"JFJFJFJFJFJFJFJFJFJFJFJFJFJFJFJFJFJFJFJFJFJFJFJFJFJFJFJFJFJFJFJFJFJFJFJFJFJFJFJFJFJFJFJFJFJFJFJFJFJFJFJFJFJFJFJFJFJFJFJFJFJFJFJFJFJFJFJFJFJFJFJFJFJFJFJFJFJFJFJFJFJFJFJFJFJFJFJFJF",
"JFJFJFJFJFJFJFJFJFJFJFJFJFJFJFJFJFJFJFJFJFJFJFJFJFJFJFJFJFJFJFJFJFJFJFJFJFJFJFJFJFJFJFJFJFJFJFJFJFJFJFJFJFJFJFJFJFJFJFJFJFJFJFJFJFJFJFJFJFJFJFJFJFJFJFJFJFJFJFJFJFJFJFJFJFJFJFJFJF",
"JFJFJFJFJFJFJFJFJFJFJFJFJFJFJFJFJFJFJFJFJFJFJFJFJFJFJFJFJFJFJFJFJFJFJFJFJFJFJFJFJFJFJFJFJFJFJFJFJFJFJFJFJFJFJFJFJFJFJFJFJFJFJFJFJFJFJFJFJFJFJFJFJFJFJFJFJFJFJFJFJFJFJFJFJFJFJFJFIF",
"JFJFJFJFJFJFJFJFJFJFJFJFJFJFJFJFJFJFJFJFJFJFJFJFJFJFJFJFJFJFJFJFJFJFJFJFJFJFJFJFJFJFJFJFJFJFJFJFJFJFJFJFJFJFJFJFJFJFJFJFJFJFJFJFJFJFJFJFJFJFJFJFJFJFJFJFJFJFJFJFJFJFJFJFJFJFJFJFJF",
"JFJFJFJFJFJFJFJFJFJFJFJFJFJFJFJFJFJFJFJFJFJFJFJFJFJFJFJFJFJFJFJFJFJFJFJFJFJFJFJFJFJFJFJFJFJFJFJFJFJFJFJFJFJFJFJFJFJFJFJFJFJFJFJFJFJFJFJFJFJFJFJFJFJFJFJFJFJFJFJFJFJFJFJFJFJFJFJFJF",
"JFJFJFJFJFJFJFJFJFJFJFJFJFJFJFJFJFJFJFJFJFJFJFJFJFJFJFJFJFJFJFJFJFJFJFJFJFJFJFJFJFJFJFJFJFJFJFJFJFJFJFJFJFJFJFJFJFJFJFJFJFJFJFJFJFJFJFJFJFJFJFJFJFJFJFJFJFJFJFJFJFJFJFJFJFJFJFJFJF",
"JFJFJFJFJFJFJFJFJFJFJFJFJFJFJFJFJFJFJFJFJFJFJFJFJFJFJFJFJFJFJFJFJFJFJFJFJFJFJFJFJFJFJFJFJFJFJFJFJFJFJFJFJFJFJFJFJFJFJFJFJFJFJFJFJFJFJFJFJFJFJFJFJFJFJFJFJFJFJFJFJFJFJFJFJFJFJFJFJF",
"JFJFJFJFJFJFJFJFJFJFJFJFJFJFJFJFJFJFJFJFJFJFJFJFJFJFJFJFJFJFJFJFJFJFJFJFJFJFJFJFJFJFJFJFJFJFJFJFJFJFJFJFJFJFJFJFJFJFJFJFJFJFJFJFJFJFJFJFJFJFJFJFJFJFJFJFJFJFJFJFJFJFJFJFJFJFJFJFJF",
"JFJFJFJFJFJFJFJFJFJFJFJFJFJFJFJFJFJFJFJFJFJFJFJFJFJFJFJFJFJFJFJFJFJFJFJFJFJFJFJFJFJFJFJFJFJFJFJFJFJFJFJFJFJFJFJFJFJFJFJFJFJFJFJFJFJFJFJFJFJFJFJFJFJFJFJFJFJFJFJFJFJFJFJFJFJFJFJFJF",
"JFJFJFJFJFJFJFJFJFJFJFJFJFJFJFJFJFJFJFJFJFJFJFJFJFJFJFJFJFJFJFJFJFJFJFJFJFJFJFJFJFJFJFJFJFJFJFJFJFJFJFJFJFJFJFJFJFJFJFJFJFJFJFJFJFJFJFJFJFJFJFJFJFJFJFJFJFJFJFJFJFJFJFJFJFJFJFJFJF",
"JFJFJFJFJFJFJFJFJFJFJFJFJFJFJFJFJFJFJFJFJFJFJFJFJFJFJFJFJFJFJFJFJFJFJFJFJFJFJFJFJFJFJFJFJFJFJFJFJFJFJFJFJFJFJFJFJFJFJFJFJFJFJFJFJFJFJFJFJFJFJFJFJFJFJFJFJFJFJFJFJFJFJFJFJFJFJFJFIF",
"JFJFJFJFJFJFJFJFJFJFJFJFJFJFJFJFJFJFJFJFJFJFJFJFJFJFJFJFJFJFJFJFJFJFJFJFJFJFJFJFJFJFJFJFJFJFJFJFJFJFJFJFJFJFJFJFJFJFJFJFJFJFJFJFJFJFJFJFJFJFJFJFJFJFJFJFJFJFJFJFJFJFJFJFJFJFJFJFJF",
"JFJFJFJFJFJFJFJFJFJFJFJFJFJFJFJFJFJFJFJFJFJFJFJFJFJFJFJFJFJFJFJFJFJFJFJFJFJFJFJFJFJFJFJFJFJFJFJFJFJFJFJFJFJFJFJFJFJFJFJFJFJFJFJFJFJFJFJFJFJFJFJFJFJFJFJFJFJFJFJFJFJFJFJFJFJFJFJFIF",
"JFJFJFJFJFJFJFJFJFJFJFJFJFJFJFJFJFJFJFJFJFJFJFJFJFJFJFJFJFJFJFJFJFJFJFJFJFJFJFJFJFJFJFJFJFJFJFJFJFJFJFJFJFJFJFJFJFJFJFJFJFJFJFJFJFJFJFJFJFJFJFJFJFJFJFJFJFJFJFJFJFJFJFJFJFJFJFJFJF",
"JFJFJFJFJFJFJFJFJFJFJFJFJFJFJFJFJFJFJFJFJFJFJFJFJFJFJFJFJFJFJFJFJFJFJFJFJFJFJFJFJFJFJFJFJFJFJFJFJFJFJFJFJFJFJFJFJFJFJFJFJFJFJFJFJFJFJFJFJFJFJFJFJFJFJFJFJFJFJFJFJFJFJFJFJFJFJFJFJF",
"JFJFJFJFJFJFJFJFJFJFJFJFJFJFJFJFJFJFJFJFJFJFJFJFJFJFJFJFJFJFJFJFJFJFJFJFJFJFJFJFJFJFJFJFJFJFJFJFJFJFJFJFJFJFJFJFJFJFJFJFJFJFJFJFJFJFJFJFJFJFJFJFJFJFJFJFJFJFJFJFJFJFJFJFJFJFJFJFJF",
"JFJFJFJFJFJFJFJFJFJFJFJFJFJFJFJFJFJFJFJFJFJFJFJFJFJFJFJFJFJFJFJFJFJFJFJFJFJFJFJFJFJFJFJFJFJFJFJFJFJFJFJFJFJFJFJFJFJFJFJFJFJFJFJFJFJFJFJFJFJFJFJFJFJFJFJFJFJFJFJFJFJFJFJFJFJFJFJFJF",
"JFJFJFJFJFJFJFJFJFJFJFJFJFJFJFJFJFJFJFJFJFJFJFJFJFJFJFJFJFJFJFJFJFJFJFJFJFJFJFJFJFJFJFJFJFJFJFJFJFJFJFJFJFJFJFJFJFJFJFJFJFJFJFJFJFJFJFJFJFJFJFJFJFJFJFJFJFJFJFJFJFJFJFJFJFJFJFJFJF",
"JFJFJFJFJFJFJFJFJFJFJFJFJFJFJFJFJFJFJFJFJFJFJFJFJFJFJFJFJFJFJFJFJFJFJFJFJFJFJFJFJFJFJFJFJFJFJFJFJFJFJFJFJFJFJFJFJFJFJFJFJFJFJFJFJFJFJFJFJFJFJFJFJFJFJFJFJFJFJFJFJFJFJFJFJFJFJFJFCE",
"JFJFJFJFJFJFJFJFJFJFJFJFJFJFJFJFJFJFJFJFJFJFJFJFJFJFJFJFJFJFJFJFJFJFJFJFJFJFJFJFJFJFJFJFJFJFJFJFJFJFJFJFJFJFJFJFJFJFJFJFJFJFJFJFJFJFJFJFJFJFJFJFJFJFJFJFJFJFJFJFJFJFJFJFJFJFJFJFJF",
"JFJFJFJFJFJFJFJFJFJFJFJFJFJFJFJFJFJFJFJFJFJFJFJFJFJFJFJFJFJFJFJFJFJFBEJFJFJFJFJFJFJFJFJFJFJFJFBEJFJFJFJFJFJFJFJFJFJFJFJFJFJFJFJFJFJFJFJFJFJFJFJFJFJFJFJFJFJFJFJFJFJFJFJFJFJFJFJFJF",
"JFJFJFJFJFJFJFJFJFJFJFJFJFJFJFJFJFJFJFJFJFJFJFJFJFJFJFJFJFJFJFJFBEJFJFJFEFJFJFJFJFJFCDFFJFJFGFJFJFJFJFJFJFJFJFJFJFJFJFJFJFJFJFJFJFJFJFJFJFJFJFJFJFJFJFJFJFJFJFJFJFJFJFJFJFJFJFJFIF",
"JFJFJFJFJFJFJFJFJFJFJFJFJFJFJFJFJFJFJFJFJFJFJFJFJFJFJFJFJFJFJFJFJFJFJFJFJFJFJFJFODJFJFJFJFJFIFJFJFJFJFJFJFJFJFJFJFJFJFJFJFJFJFJFJFJFJFJFJFJFJFJFJFJFJFJFJFJFJFJFJFJFJFJFJFJFJFJFFF",
"JFJFJFJFJFJFJFJFJFJFJFJFJFJFJFJFJFJFJFJFJFJFJFJFJFJFJFJFJFJFJFJFJFJFBEJFJFJFJFJFJFLEJFJFIFFFJFJFJFJFJFJFJFJFJFJFJFJFJFJFJFJFJFJFJFJFJFJFJFJFJFJFJFJFJFJFJFJFJFJFJFJFJFJFJFJFJFJFJF",
"JFJFJFJFJFJFJFJFJFJFJFJFJFJFJFJFJFJFJFJFJFJFJFJFJFJFJFJFJFJFJFJFIFIFIFJFJFIFIFBFIFJFJFLDIFJFIFIFJFJFJFJFJFJFJFJFJFJFJFJFJFJFJFJFJFJFJFJFJFJFJFJFJFJFJFJFJFJFJFJFJFJFJFJFJFJFJFJFJF",
"JFJFJFJFJFJFJFJFJFJFJFJFJFJFJFJFJFJFJFJFJFJFJFJFJFJFJFJFJFJFJFJFIFJFIFHFJFJFBFMBABAAOBIECALEJFIFJFJFJFJFJFJFJFJFJFJFJFJFJFJFJFJFJFJFJFJFJFJFJFJFJFJFJFJFJFJFJFJFJFJFJFJFJFJFJFJFEF",
"JFJFJFJFJFJFJFJFJFJFJFJFJFJFJFJFJFJFJFJFJFJFJFJFJFJFJFJFJFJFJFJFJFIFPDDEIFHEEDCAPBFBCAEBIAGACAJFJFJFJFJFJFJFJFJFJFJFJFJFJFJFJFJFJFJFJFJFJFJFJFJFJFJFJFJFJFJFJFJFJFJFJFJFJFJFJFJFJF",
"JFJFJFJFJFJFJFJFJFJFJFJFJFJFJFJFJFJFJFJFJFJFJFJFJFJFJFJFJFJFJFJFIFJFIFJFPDABEBABABCBPBIAEBLBCAGAJFJFJFJFJFJFJFJFJFJFJFJFJFJFJFJFJFJFJFJFJFJFJFJFJFJFJFJFJFJFJFJFJFJFJFJFJFJFJFJFJF",
"JFJFJFJFJFJFJFJFJFJFJFJFJFJFJFJFJFJFJFJFJFJFJFJFJFJFJFJFJFJFJFJFIFJFIFLDGAABCAGAJFIFFCGACALAKAKAMDJFODJFJFJFJFJFJFJFJFJFJFJFJFJFJFJFJFJFJFJFJFJFJFJFJFJFJFJFJFJFJFJFJFJFJFJFJFJFJF",
"JFJFJFJFJFJFJFJFJFJFJFJFJFJFJFJFJFJFJFJFJFJFJFJFJFJFJFJFJFJFJFJFIFIFIDICGABACBDEDELDIFIFKDHCIACACAIFJFJFJFJFAFJFJFJFJFJFJFJFJFJFJFJFJFJFJFJFJFJFJFJFJFJFJFJFJFJFJFJFJFJFJFJFJFJFJF",
"JFJFJFJFJFJFJFJFJFJFJFJFJFJFJFJFJFJFJFJFJFJFJFJFJFJFJFJFJFJFJFJFJFAEBAGAGABBEDIFJFJFJFJFJFKDNCGAJABAKCODLEJFJFJFJFJFJFJFJFJFJFJFJFJFJFJFJFJFJFJFJFJFJFJFJFJFJFJFJFJFJFJFJFJFJFJFJF",
"JFJFJFJFJFJFJFJFJFJFJFJFJFJFJFJFJFJFJFJFJFJFJFJFIFJFJFJFJFJFJFJFPEICGAOBBAACJFIFIFJFJFJDDEIFODFBBAGAJALEJFJFJFJFJFJFJFJFJFJFJFJFJFJFJFJFJFJFJFJFJFJFJFJFJFJFJFJFJFJFJFJFJFJFJFJFCE",
"JFJFJFJFJFJFJFJFJFJFJFJFJFJFJFJFJFJFJFJFJFJFJFJFJFJFJFJFJFJFJFIFCCDAJAIAKAGCJFJFJFIFJFJFJFJFJFAFHBAACABAJAJFODJFJFJFJFJFJFJFJFJFJFJFJFJFJFJFJFJFJFJFJFJFJFJFJFJFJFJFJFJFJFJFJFJFJF",
"JFJFJFJFJFJFJFJFJFJFJFJFJFJFJFJFJFJFJFJFJFJFJFJFIFJFJFJFJFJFJFJFOCGAJAGAEFJFJFJFJFIFJFJFIFJFJFJFBFGABBBABAJFJFJFJFJFJFJFJFJFJFJFJFJFJFJFJFJFJFJFJFJFJFJFJFJFJFJFJFJFJFJFJFJFJFJFJF",
"JFJFJFJFJFJFJFJFJFJFJFJFJFJFJFJFJFJFJFJFJFJFJFJFJFJFJFJFJFJFIFIFFBDAJAACIFJFHDJFJFJFJFJFJFJFJFEFIFJFBAGAGABAJFJFJFJFJFJFJFJFJFJFJFJFJFJFJFJFJFJFJFJFJFJFJFJFJFJFJFJFJFJFJFJFJFJFBF",
"JFJFJFJFJFJFJFJFJFJFJFJFJFJFJFJFJFJFJFJFJFJFJFJFJFJFJFJFJFJFJFJFCADACAJFEFJFJFJFJFJFJFJFJFJFJFJFJFBFGAJABAHBJFODJFJFJFJFJFJFJFJFJFJFJFJFJFJFJFJFJFJFJFJFJFJFJFJFJFJFJFJFJFJFJFJFJF",
"JFJFJFJFJFJFJFJFJFJFJFJFJFJFJFJFJFJFJFJFJFJFJFJFJFJFJFJFIFJFIFGAKABALEJFJFODJFJFJFJFJFJFJFJFJFJFJFJFPDECGAJFAFJFIFJFJFJFJFJFJFJFJFJFJFJFJFJFJFJFJFJFJFJFJFJFJFJFJFJFJFJFJFJFJFJFJF",
"JFJFJFJFJFJFJFJFJFJFJFJFJFJFJFJFJFJFJFJFJFJFJFJFJFJFJFJFJFJFHDGABAKABFJFJFJFJFJFJFJFJFJFJFJFJFJFJFJFJFAACABAJBIFJFJFJFJFJFJFJFJFJFJFJFJFJFJFJFJFJFJFJFJFJFJFJFJFJFJFJFJFJFJFJFJFJF",
"JFJFJFJFJFJFJFJFJFJFJFJFJFJFJFJFJFJFJFJFJFJFJFJFJFJFJFIFIFIFKCDABBLEJFJFJFJFJFFFJFJFJFJFJFJFJFJFEFJFJFJFJFABABBFJFIFJFJFJFJFJFJFJFJFJFJFJFJFJFJFJFJFJFJFJFJFJFJFJFJFJFJFJFJFJFJFJF",
"JFJFJFJFJFJFJFJFJFJFJFJFJFJFJFJFJFJFJFJFJFJFJFJFJFJFJFJFIFIFKAIABAJFJFODJFJFJFJFJFJFJFJFJFJFJFJFJFJFHDJFJFJFJFJFIFJFJFJFJFJFJFJFJFJFJFJFJFJFJFJFJFJFJFJFJFJFJFJFJFJFJFJFJFJFJFJFIF",
"JFJFJFJFJFJFJFJFJFJFJFJFJFJFJFJFJFJFJFJFJFJFJFJFJFIFJFIFJFJFDAHAAAJFJFDEJFIFJFJFJFJFJFJFJFJFJFJFJFBFODJFMECACABAJFJFIFJFJFJFJFJFJFJFJFJFJFJFJFJFJFJFJFJFJFJFJFJFJFJFJFJFJFJFJFJFJF",
"JFJFJFJFJFJFJFJFJFJFJFJFJFJFJFJFJFJFJFJFJFJFJFJFJFEEJFJFIFJFEAPAJAJFJFJFJFJFCEJFJFJFJFJFJFJFJFJFBEJFJFAFOCCAGACAIFJFJFJFJFJFJFJFJFJFJFJFJFJFJFJFJFJFJFJFJFJFJFJFJFJFJFJFJFJFJFJFFF",
"JFJFJFJFJFJFJFJFJFJFJFJFJFJFJFJFJFJFJFJFJFJFJFJFJFIFJFJFIFDEHAOAGAAFIFJFJFJFJFJFJFJFJFJFJFJFJFJFJFBEODJFACGACALAJFIFJFJFJFJFJFJFJFJFJFJFJFJFJFJFJFJFJFJFJFJFJFJFJFJFJFJFJFJFJFJFJF",
"JFJFJFJFJFJFJFJFJFJFJFJFJFJFJFJFJFJFJFJFJFJFJFJFJFIFJFIFODCDEAHADCJFJFIFJFJFJFJFJFJFJFJFJFJFJFJFJFBFJFIFDAIAEBCAJFIFJFIFJFJFJFJFJFJFJFJFJFJFJFJFJFJFJFJFJFJFJFJFJFJFJFJFJFJFJFJFIF",
"JFJFJFJFJFJFJFJFJFJFJFJFJFJFJFJFJFJFJFJFJFJFJFJFJFIFJFJFPDFDKAOAABJFJFJFIFJFEFJFJFJFJFJFJFJFJFJFJFJFODJFIAIAIAKEIFDEJFJFIFJFJFJFJFJFJFJFJFJFJFJFJFAFJFJFJFJFBFJFJFJFJFJFIFJFJFJFJF",
"JFJFJFJFJFJFJFJFJFJFJFJFJFJFJFJFJFJFJFJFJFJFJFJFJFJFIFJFIFKEKAIBAAJFDFIFJFJFJFJFJFJFJFJFJFJFJFJFJFJFJFODCACANDEBHEJFHFJFIFJFJFJFJFJFJFJFJFJFJFJFJFJFAFJFEFODJFDDAFJFJFIFJFJFJFIFFF",
"JFJFJFJFJFJFJFJFJFJFJFJFJFJFJFJFJFJFJFJFJFJFJFJFJFJFIFJFJFIFEAHBBAJFIFJFJFIFJFJFJFJFJFJFJFJFJFJFJFJFIEJFNDLAFBDABCIFDEJFJFIFJFJFJFJFJFJFJFJFJFJFODJFAFJFJFJFODJFECJFJFJFJFJFJFJFJF",
"JFJFJFJFJFJFJFJFJFJFJFJFJFJFJFJFJFJFJFJFJFJFJFJFIFJFIFIFIFJFDAKBKAODJFJFJFJFIFJFJFJFJFJFJFJFJFJFEEJFJFIFHBKADAPAGALDJFIFJFFFJFJFJFJFJFJFJFJFJFJFJFJFJFJFJFIFJFGAAAIFJFJFJFIFJFIFJF",
"JFJFJFJFJFJFJFJFJFJFJFJFJFJFJFJFJFJFJFJFJFJFJFJFJFJFJFJFIFJFCAFBKAOBJFJFJFJFJFJFJFJFJFJFJFJFJFJFJFJFIFNCGCJCLAECIAPCIFIFJFODJFIFJFJFJFJFJFJFJFJFJFJFJFJFMEJFJACAKAJFJFIFJFFFJFJFJF",
"JFJFJFJFJFJFJFJFJFJFJFJFJFJFJFJFJFJFJFJFJFJFJFJFJFIFJFJFIFIFDAKABBCAJFJFODJFJFJFJFJFJFJFJFJFJFJFJFJFIFCAPEIADADALAKAAFIFJFHFJFJFJFJFJFJFJFJFJFJFAFJFEFBFJFBACAABDDJFFFIFJFODIFJFJF",
"JFJFJFJFJFJFJFJFJFJFJFJFJFJFJFJFJFJFJFJFJFJFJFJFEEJFEEJFIFDEABGAKAGAJFJFJFJFJFJFJFJFJFJFJFJFJFJFJFIFABHBDAIFIFHACBIAFCIFJFDEJFIFJFJFJFJFJFJFJFJFJFJFJFJFCAGAJAICJFJFODJFJFJFJFJFJF",
"JFJFJFJFJFJFJFJFJFJFJFJFJFJFJFJFJFJFJFJFJFJFJFJFJFJFEEJFJFIFFBGACAKAODODJFODJFIFJFJFJFJFJFJFJFJFJFMCCABDNAKDIFEANAGABAIFJFIFJFJFJFJFJFJFJFJFJFJFJFODAEBAABEBGAJFJFJFJFIFJFJFJFIFJF",
"JFJFJFJFJFJFJFJFJFJFJFJFJFJFJFJFJFJFJFJFJFJFJFJFJFJFIFJFODJFJFAAOADBGEJFJFJFJFJFJFJFJFJFJFJFJFAFIFCAKCEBJEJFJFIFAAABGAJAJEJFDEIFODIFJFDEIFJFADFDLBCBKAEBBAABLDJFJFJFJFJFJFJFJFJFJF",
"JFJFJFJFJFJFJFJFJFJFJFJFJFJFJFJFJFJFJFJFJFJFJFJFIFJFJFJFIFJFFFAAHAOAMAEFJFJFBEJFJFJFGFJFEFJFEFJFDAGALDABIFLDJFDECCGAGAAAIAGAFDIFIFDEDEJFLDPBCAIAPBDAGACAABBFJFIFJFJFJFJFJFJFJFJFJF",
"JFJFJFJFJFJFJFJFJFJFJFJFJFJFJFJFJFJFJFJFJFJFJFJFJFJFJFJFJFJFIFDCMAHBGAEFIFJFIFJFJFJFJFJFJFIFJFIEGAIFMEJFJFJFIFJFJFDDABBBGAEBCACACAGAGAAAGAABGAGAGAIAOCJFIFIFCFJFJFJFJFJFJFJFJFJFFF",
"JFJFJFJFJFJFJFJFJFJFJFJFJFJFJFJFJFJFJFJFJFJFJFJFIFJFIFJFJFJFJFBFDAKADAHCJFJFJFJFJFJFJFIFJFJFBFJBKAFDJFHEIFPDDEJFIFJFIEGABAGAABABABJAABABABKAABPBNDIFIFJFJFDEJFIFJFJFJFJFJFJFJFJFJF",
"JFJFJFJFJFJFJFJFJFJFJFJFJFJFJFJFJFJFJFJFJFJFJFJFJFJFJFIFJFIFJFJFJAGACAGAJFJFDEJFDEJFJFOEJFJFABNBAAOELDJFOEIFJFIFPDIFJFIFGAKAGABAABAAGAKAAAAAABBFDEJFIFJFJFJFIFCFJFJFJFJFJFJFJFJFJF",
"JFJFJFJFJFJFJFJFJFJFJFJFJFJFJFJFJFJFJFJFJFJFJFJFIFJFJFJFJFJFJFIFDEIABAOBFCDEJFJFIFDEIFJFMDAAPDGBIFBFJFJFPDJFPDJFJFPDJFJFJFDEIFIFDDDEJFIFJFJFIFJFIFIFJFIFIFIFAFJFJFJFJFJFJFJFJFJFIF",
"JFJFJFJFJFJFJFJFJFJFJFJFJFJFJFJFJFJFJFJFJFJFJFJFJFJFJFJFJFJFJFJFJFGBAANBGAGCIFIFJFKDJFCAABGAFAIFJFIFDDIFJFFFIFJFCEJFHFFFIFJFIFJFJFJFIFIFJFJFHFIFJFJFJFODIFJFJFFFJFJFJFJFJFJFJFJFJF",
"JFJFJFJFJFJFJFJFJFJFJFJFJFJFJFJFJFJFJFJFJFJFJFJFJFIFJFJFFFJFJFIFCEJFGAAAGACBKCJFFELCCACBGAJFIFJFPDJFJFJFJFJFIFJFJFFFJFJFJFFFJFODIFIFJFIFJFJFIFJFIFJFHFJFIFBFJFJFJFJFJFJFJFJFJFJFIF",
"JFJFJFJFJFJFJFJFJFJFJFJFJFJFJFJFJFJFJFJFJFJFJFJFJFJFJFJFJFJFJFJFIFIFOCFACBOBFBDAECIACAFBNBLDJFCFJFJFJFJFJFJFJFJFJFJFJFJFJFJFJFJFJFJFJFJFJFJFJFJFJFJFJFJFJFJFJFJFJFJFJFJFJFJFJFJFJF",
"JFJFJFJFJFJFJFJFJFJFJFJFJFJFJFJFJFJFJFJFJFJFJFJFJFJFJFJFJFJFJFJFEEJFGDABCABAKAFBPBEAMBLDDEIFIFJFJFJFJFJFJFJFJFJFJFJFJFJFJFJFJFJFJFJFJFJFJFJFJFJFJFJFJFJFJFJFJFJFJFJFJFJFJFJFJFJFJF",
"JFJFJFJFJFJFJFJFJFJFJFJFJFJFJFJFJFJFJFJFJFJFJFJFJFJFJFJFJFJFJFJFIFJFIFNEIDABCAGACAABGCJFJFJFIFIFJFJFJFJFJFJFJFJFJFJFJFJFJFJFJFJFJFJFJFJFJFJFJFJFJFJFJFJFJFJFJFJFJFJFJFJFJFJFJFJFJF",
"JFJFJFJFJFJFJFJFJFJFJFJFJFJFJFJFJFJFJFJFJFJFJFJFJFJFJFJFJFJFJFJFIFIFIFJFJFOEGCFCABAEIFDEODIFJFIFJFJFJFJFJFJFJFJFJFJFJFJFJFJFJFJFJFJFJFJFJFJFJFJFJFJFJFJFJFJFJFJFJFJFJFJFJFJFJFJFJF",
"JFJFJFJFJFJFJFJFJFJFJFJFJFJFJFJFJFJFJFJFJFJFJFJFJFJFJFJFJFJFJFJFIFJFJFJFJFJFJFJFAFJFJFJFJFIFJFJFJFJFJFJFJFJFJFJFJFJFJFJFJFJFJFJFJFJFJFJFJFJFJFJFJFJFJFJFJFJFJFJFJFJFJFJFJFJFJFJFBF",
"JFJFJFJFJFJFJFJFJFJFJFJFJFJFJFJFJFJFJFJFJFJFJFJFJFJFJFJFJFJFJFJFJFJFJFJFJFJFIFJFJFJFJFJFJFFFJFJFJFJFJFJFJFJFJFJFJFJFJFJFJFJFJFJFJFJFJFJFJFJFJFJFJFJFJFJFJFJFJFJFJFJFJFJFJFJFJFJFJF",
"JFJFJFJFJFJFJFJFJFJFJFJFJFJFJFJFJFJFJFJFJFJFJFJFJFJFJFJFJFJFJFJFJFJFODJFDFJFJFJFJFJFJFBEJFJFJFJFJFJFJFJFJFJFJFJFJFJFJFJFJFJFJFJFJFJFJFJFJFJFJFJFJFJFJFJFJFJFJFJFJFJFJFJFJFJFJFJFJF",
"JFJFJFJFJFJFJFJFJFJFJFJFJFJFJFJFJFJFJFJFJFJFJFJFJFJFJFJFJFJFJFJFEFJFJFJFFFJFJFJFJFJFJFJFJFJFJFJFJFJFJFJFJFJFJFJFJFJFJFJFJFJFJFJFJFJFJFJFJFJFJFJFJFJFJFJFJFJFJFJFJFJFJFJFJFJFJFJFIF",
"JFJFJFJFJFJFJFJFJFJFJFJFJFJFJFJFJFJFJFJFJFJFJFJFJFJFJFJFJFJFJFJFJFJFJFJFJFJFJFJFJFJFJFJFJFJFJFJFJFJFJFJFJFJFJFJFJFJFJFJFJFJFJFJFJFJFJFJFJFJFJFJFJFJFJFJFJFJFJFJFJFJFJFJFJFJFJFJFJF",
"JFJFJFJFJFJFJFJFJFJFJFJFJFJFJFJFJFJFJFJFJFJFJFJFJFJFJFJFJFJFJFJFJFJFJFJFJFJFJFJFJFJFJFJFJFJFJFJFJFJFJFJFJFJFJFJFJFJFJFJFJFJFJFJFJFJFJFJFJFJFJFJFJFJFJFJFJFJFJFJFJFJFJFJFJFJFJFJFJF",
"JFJFJFJFJFJFJFJFJFJFJFJFJFJFJFJFJFJFJFJFJFJFJFJFJFJFJFJFJFJFJFJFJFJFJFJFJFJFJFJFJFJFJFJFJFJFJFJFJFJFJFJFJFJFJFJFJFJFJFJFJFJFJFJFJFJFJFJFJFJFJFJFJFJFJFJFJFJFJFJFJFJFJFJFJFJFJFJFJF",
"JFJFJFJFJFJFJFJFJFJFJFJFJFJFJFJFJFJFJFJFJFJFJFJFJFJFJFJFJFJFJFJFJFJFJFJFJFJFJFJFJFJFJFJFJFJFJFJFJFJFJFJFJFJFJFJFJFJFJFJFJFJFJFJFJFJFJFJFJFJFJFJFJFJFJFJFJFJFJFJFJFJFJFJFJFJFJFJFJF",
"JFJFJFJFJFJFJFJFJFJFJFJFJFJFJFJFJFJFJFJFJFJFJFJFJFJFJFJFJFJFJFJFJFJFJFJFJFJFJFJFJFJFJFJFJFJFJFJFJFJFJFJFJFJFJFJFJFJFJFJFJFJFJFJFJFJFJFJFJFJFJFJFJFJFJFJFJFJFJFJFJFJFJFJFJFJFJFJFIF",
"JFJFJFJFJFJFJFJFJFJFJFJFJFJFJFJFJFJFJFJFJFJFJFJFJFJFJFJFJFJFJFJFJFJFJFJFJFJFJFJFJFJFJFJFJFJFJFJFJFJFJFJFJFJFJFJFJFJFJFJFJFJFJFJFJFJFJFJFJFJFJFJFJFJFJFJFJFJFJFJFJFJFJFJFJFJFJFJFJF",
"JFJFJFJFJFJFJFJFJFJFJFJFJFJFJFJFJFJFJFJFJFJFJFJFJFJFJFJFJFJFJFJFJFJFJFJFJFJFJFJFJFJFJFJFJFJFJFJFJFJFJFJFJFJFJFJFJFJFJFJFJFJFJFJFJFJFJFJFJFJFJFJFJFJFJFJFJFJFJFJFJFJFJFJFJFJFJFJFJF",
"JFJFJFJFJFJFJFJFJFJFJFJFJFJFJFJFJFJFJFJFJFJFJFJFJFJFJFJFJFJFJFJFJFJFJFJFJFJFJFJFJFJFJFJFJFJFJFJFJFJFJFJFJFJFJFJFJFJFJFJFJFJFJFJFJFJFJFJFJFJFJFJFJFJFJFJFJFJFJFJFJFJFJFJFJFJFJFJFJF",
"JFFFJFJFJFJFFFJFIFJFJFJFIFJFJFJFJFJFJFJFJFFFJFODJFJFIFJFJFJFJFJFJFJFJFJFJFJFJFJFJFJFJFJFJFIFJFJFJFJFIFJFJFJFJFJFIFJFJFEFJFJFJFJFJFIFJFJFJFJFJFJFJFJFJFJFJFJFODJFJFJFIFJFJFJFJFJFIF",
"JFJFJFJFIFJFIFJFJFJFIFJFJFJFJFJFJFJFJFJFJFJFJFJFJFJFJFIFJFIFJFIFJFJFJFJFJFJFJFJFIFJFJFJFJFJFJFIFJFJFJFJFJFJFJFJFJFJFJFJFJFJFJFJFJFJFJFIFJFJFJFJFJFIFJFJFJFJFJFJFJFJFJFJFJFJFJFJFJF",
"IFJFJFIFFFJFJFJFJFJFJFJFJFJFJFJFJFJFJFODIFJFEFJFJFJFJFJFJFJFJFJFJFJFJFJFJFJFJFJFJFJFJFJFJFJFJFJFJFJFJFODJFCEJFJFIFJFJFJFJFIFJFJFJFJFJFJFJFJFIFJFJFJFJFJFFFIFJFJFJFJFJFJFJFJFJFIFJF",
"JFIFJFJFJFJFJFJFJFIFJFJFJFIFJFJFJFJFJFIFJFJFJFJFJFJFJFJFJFIFJFJFJFJFJFJFIFJFJFJFJFJFJFJFJFJFJFJFJFJFJFFFJFJFJFJFJFIFJFJFJFJFJFJFJFJFJFJFJFJFJFJFJFJFJFJFIFJFJFJFJFJFJFJFJFJFJFJFJF",
"JFJFJFJFJFJFJFIFJFJFJFJFJFJFJFIFJFJFIFJFJFBFJFJFJFIFJFJFJFJFIFJFJFJFJFJFJFJFJFJFIFJFJFIFJFJFJFIFJFJFJFHFJFJFJFJFJFODJFJFJFIFJFJFIFJFIFJFJFJFJFIFFFJFIFJFJFJFJFJFJFJFJFJFJFJFJFJFJF"};
